<?xml version="1.0" encoding="UTF-8" standalone="no"?>
<!DOCTYPE svg PUBLIC "-//W3C//DTD SVG 1.1//EN"
 "http://www.w3.org/Graphics/SVG/1.1/DTD/svg11.dtd">
<!-- Generated by graphviz version 2.43.0 (0)
 -->
<!-- Title: nfa Pages: 1 -->
<svg width="1044pt" height="269pt"
 viewBox="0.00 0.00 1043.83 269.00" xmlns="http://www.w3.org/2000/svg" xmlns:xlink="http://www.w3.org/1999/xlink">
<g id="graph0" class="graph" transform="scale(1 1) rotate(0) translate(4 265)">
<title>nfa</title>
<polygon fill="white" stroke="transparent" points="-4,4 -4,-265 1039.83,-265 1039.83,4 -4,4"/>
<!-- S&#39; &#45;&gt; ·S -->
<g id="node1" class="node">
<title>S&#39; &#45;&gt; ·S</title>
<ellipse fill="none" stroke="black" cx="45.5" cy="-99" rx="45.49" ry="18"/>
<text text-anchor="middle" x="45.5" y="-95.3" font-family="Times,serif" font-size="14.00">S&#39; &#45;&gt; ·S</text>
</g>
<!-- S &#45;&gt; ·SS+ -->
<g id="node2" class="node">
<title>S &#45;&gt; ·SS+</title>
<ellipse fill="none" stroke="black" cx="193.54" cy="-126" rx="56.59" ry="18"/>
<text text-anchor="middle" x="193.54" y="-122.3" font-family="Times,serif" font-size="14.00">S &#45;&gt; ·SS+</text>
</g>
<!-- S&#39; &#45;&gt; ·S&#45;&gt;S &#45;&gt; ·SS+ -->
<g id="edge1" class="edge">
<title>S&#39; &#45;&gt; ·S&#45;&gt;S &#45;&gt; ·SS+</title>
<path fill="none" stroke="black" d="M87.18,-106.52C101.72,-109.21 118.4,-112.29 134.14,-115.2"/>
<polygon fill="black" stroke="black" points="133.84,-118.71 144.31,-117.08 135.11,-111.82 133.84,-118.71"/>
<text text-anchor="middle" x="113.99" y="-114.8" font-family="Times,serif" font-size="14.00">ε</text>
</g>
<!-- S &#45;&gt; ·SS* -->
<g id="node3" class="node">
<title>S &#45;&gt; ·SS*</title>
<ellipse fill="none" stroke="black" cx="513.02" cy="-56" rx="53.09" ry="18"/>
<text text-anchor="middle" x="513.02" y="-52.3" font-family="Times,serif" font-size="14.00">S &#45;&gt; ·SS*</text>
</g>
<!-- S&#39; &#45;&gt; ·S&#45;&gt;S &#45;&gt; ·SS* -->
<g id="edge2" class="edge">
<title>S&#39; &#45;&gt; ·S&#45;&gt;S &#45;&gt; ·SS*</title>
<path fill="none" stroke="black" d="M89.87,-94.99C173.17,-87.3 355.72,-70.44 451.15,-61.62"/>
<polygon fill="black" stroke="black" points="451.59,-65.1 461.23,-60.69 450.95,-58.13 451.59,-65.1"/>
<text text-anchor="middle" x="273.08" y="-81.8" font-family="Times,serif" font-size="14.00">ε</text>
</g>
<!-- S &#45;&gt; ·a -->
<g id="node4" class="node">
<title>S &#45;&gt; ·a</title>
<ellipse fill="none" stroke="black" cx="830.95" cy="-208" rx="42.49" ry="18"/>
<text text-anchor="middle" x="830.95" y="-204.3" font-family="Times,serif" font-size="14.00">S &#45;&gt; ·a</text>
</g>
<!-- S&#39; &#45;&gt; ·S&#45;&gt;S &#45;&gt; ·a -->
<g id="edge3" class="edge">
<title>S&#39; &#45;&gt; ·S&#45;&gt;S &#45;&gt; ·a</title>
<path fill="none" stroke="black" d="M53.94,-116.73C71.68,-155.83 120.41,-246 192.54,-246 192.54,-246 192.54,-246 676.11,-246 715.7,-246 759.4,-233.99 790.07,-223.47"/>
<polygon fill="black" stroke="black" points="791.29,-226.76 799.55,-220.13 788.96,-220.15 791.29,-226.76"/>
<text text-anchor="middle" x="433.47" y="-249.8" font-family="Times,serif" font-size="14.00">ε</text>
</g>
<!-- S&#39; &#45;&gt; S· -->
<g id="node5" class="node">
<title>S&#39; &#45;&gt; S·</title>
<ellipse fill="none" stroke="black" cx="193.54" cy="-18" rx="45.49" ry="18"/>
<text text-anchor="middle" x="193.54" y="-14.3" font-family="Times,serif" font-size="14.00">S&#39; &#45;&gt; S·</text>
</g>
<!-- S&#39; &#45;&gt; ·S&#45;&gt;S&#39; &#45;&gt; S· -->
<g id="edge4" class="edge">
<title>S&#39; &#45;&gt; ·S&#45;&gt;S&#39; &#45;&gt; S·</title>
<path fill="none" stroke="black" d="M58.8,-81.49C70.12,-66.74 88.27,-46.3 108.99,-35 118.15,-30.01 128.6,-26.48 138.93,-23.98"/>
<polygon fill="black" stroke="black" points="139.71,-27.39 148.76,-21.89 138.25,-20.55 139.71,-27.39"/>
<text text-anchor="middle" x="113.99" y="-38.8" font-family="Times,serif" font-size="14.00">S</text>
</g>
<!-- S &#45;&gt; S·S+ -->
<g id="node6" class="node">
<title>S &#45;&gt; S·S+</title>
<ellipse fill="none" stroke="black" cx="353.28" cy="-173" rx="57.39" ry="18"/>
<text text-anchor="middle" x="353.28" y="-169.3" font-family="Times,serif" font-size="14.00">S &#45;&gt; S·S+</text>
</g>
<!-- S &#45;&gt; ·SS+&#45;&gt;S &#45;&gt; S·S+ -->
<g id="edge5" class="edge">
<title>S &#45;&gt; ·SS+&#45;&gt;S &#45;&gt; S·S+</title>
<path fill="none" stroke="black" d="M232.16,-139.37C243.64,-143.29 256.33,-147.47 268.08,-151 277.63,-153.87 287.85,-156.72 297.77,-159.37"/>
<polygon fill="black" stroke="black" points="296.98,-162.78 307.54,-161.95 298.76,-156.01 296.98,-162.78"/>
<text text-anchor="middle" x="273.08" y="-156.8" font-family="Times,serif" font-size="14.00">S</text>
</g>
<!-- S &#45;&gt; S·S* -->
<g id="node7" class="node">
<title>S &#45;&gt; S·S*</title>
<ellipse fill="none" stroke="black" cx="675.11" cy="-87" rx="53.89" ry="18"/>
<text text-anchor="middle" x="675.11" y="-83.3" font-family="Times,serif" font-size="14.00">S &#45;&gt; S·S*</text>
</g>
<!-- S &#45;&gt; ·SS*&#45;&gt;S &#45;&gt; S·S* -->
<g id="edge6" class="edge">
<title>S &#45;&gt; ·SS*&#45;&gt;S &#45;&gt; S·S*</title>
<path fill="none" stroke="black" d="M559.89,-64.88C577.98,-68.39 598.94,-72.45 617.93,-76.12"/>
<polygon fill="black" stroke="black" points="617.46,-79.6 627.95,-78.06 618.79,-72.72 617.46,-79.6"/>
<text text-anchor="middle" x="594.06" y="-75.8" font-family="Times,serif" font-size="14.00">S</text>
</g>
<!-- S &#45;&gt; a· -->
<g id="node8" class="node">
<title>S &#45;&gt; a·</title>
<ellipse fill="none" stroke="black" cx="982.54" cy="-208" rx="42.49" ry="18"/>
<text text-anchor="middle" x="982.54" y="-204.3" font-family="Times,serif" font-size="14.00">S &#45;&gt; a·</text>
</g>
<!-- S &#45;&gt; ·a&#45;&gt;S &#45;&gt; a· -->
<g id="edge7" class="edge">
<title>S &#45;&gt; ·a&#45;&gt;S &#45;&gt; a·</title>
<path fill="none" stroke="black" d="M873.22,-208C890.8,-208 911.51,-208 930.08,-208"/>
<polygon fill="black" stroke="black" points="930.14,-211.5 940.14,-208 930.14,-204.5 930.14,-211.5"/>
<text text-anchor="middle" x="906.74" y="-211.8" font-family="Times,serif" font-size="14.00">a</text>
</g>
<!-- S &#45;&gt; S·S+&#45;&gt;S &#45;&gt; ·SS+ -->
<g id="edge8" class="edge">
<title>S &#45;&gt; S·S+&#45;&gt;S &#45;&gt; ·SS+</title>
<path fill="none" stroke="black" d="M328.72,-156.52C314.69,-147.61 296.14,-137.36 278.08,-132 272.46,-130.33 266.53,-129.04 260.53,-128.05"/>
<polygon fill="black" stroke="black" points="260.8,-124.55 250.42,-126.65 259.84,-131.49 260.8,-124.55"/>
<text text-anchor="middle" x="273.08" y="-135.8" font-family="Times,serif" font-size="14.00">ε</text>
</g>
<!-- S &#45;&gt; S·S+&#45;&gt;S &#45;&gt; ·SS* -->
<g id="edge9" class="edge">
<title>S &#45;&gt; S·S+&#45;&gt;S &#45;&gt; ·SS*</title>
<path fill="none" stroke="black" d="M380.63,-156.95C397.51,-146.38 419.7,-131.96 438.47,-118 454.6,-106 471.82,-91.58 485.54,-79.66"/>
<polygon fill="black" stroke="black" points="487.96,-82.2 493.18,-72.98 483.35,-76.93 487.96,-82.2"/>
<text text-anchor="middle" x="433.47" y="-127.8" font-family="Times,serif" font-size="14.00">ε</text>
</g>
<!-- S &#45;&gt; S·S+&#45;&gt;S &#45;&gt; ·a -->
<g id="edge10" class="edge">
<title>S &#45;&gt; S·S+&#45;&gt;S &#45;&gt; ·a</title>
<path fill="none" stroke="black" d="M402.89,-182C411.4,-183.43 420.18,-184.83 428.47,-186 440.86,-187.75 443.99,-188.02 456.47,-189 571.37,-198.07 706.5,-203.7 778.56,-206.3"/>
<polygon fill="black" stroke="black" points="778.61,-209.8 788.73,-206.66 778.86,-202.8 778.61,-209.8"/>
<text text-anchor="middle" x="594.06" y="-201.8" font-family="Times,serif" font-size="14.00">ε</text>
</g>
<!-- S &#45;&gt; SS·+ -->
<g id="node9" class="node">
<title>S &#45;&gt; SS·+</title>
<ellipse fill="none" stroke="black" cx="513.02" cy="-162" rx="56.59" ry="18"/>
<text text-anchor="middle" x="513.02" y="-158.3" font-family="Times,serif" font-size="14.00">S &#45;&gt; SS·+</text>
</g>
<!-- S &#45;&gt; S·S+&#45;&gt;S &#45;&gt; SS·+ -->
<g id="edge14" class="edge">
<title>S &#45;&gt; S·S+&#45;&gt;S &#45;&gt; SS·+</title>
<path fill="none" stroke="black" d="M409.45,-169.15C421.78,-168.29 434.98,-167.37 447.65,-166.49"/>
<polygon fill="black" stroke="black" points="447.94,-169.98 457.68,-165.79 447.46,-162.99 447.94,-169.98"/>
<text text-anchor="middle" x="433.47" y="-170.8" font-family="Times,serif" font-size="14.00">S</text>
</g>
<!-- S &#45;&gt; S·S*&#45;&gt;S &#45;&gt; ·SS+ -->
<g id="edge11" class="edge">
<title>S &#45;&gt; S·S*&#45;&gt;S &#45;&gt; ·SS+</title>
<path fill="none" stroke="black" d="M621.33,-88.57C571.55,-90.29 494.85,-93.55 428.47,-99 369.82,-103.81 303.17,-111.75 256.06,-117.77"/>
<polygon fill="black" stroke="black" points="255.48,-114.32 246.01,-119.07 256.38,-121.26 255.48,-114.32"/>
<text text-anchor="middle" x="433.47" y="-102.8" font-family="Times,serif" font-size="14.00">ε</text>
</g>
<!-- S &#45;&gt; S·S*&#45;&gt;S &#45;&gt; ·SS* -->
<g id="edge12" class="edge">
<title>S &#45;&gt; S·S*&#45;&gt;S &#45;&gt; ·SS*</title>
<path fill="none" stroke="black" d="M648.97,-71.14C635.24,-63.41 617.6,-54.95 600.56,-51 591.31,-48.86 581.37,-48.07 571.63,-48.11"/>
<polygon fill="black" stroke="black" points="571.48,-44.61 561.59,-48.42 571.7,-51.61 571.48,-44.61"/>
<text text-anchor="middle" x="594.06" y="-54.8" font-family="Times,serif" font-size="14.00">ε</text>
</g>
<!-- S &#45;&gt; S·S*&#45;&gt;S &#45;&gt; ·a -->
<g id="edge13" class="edge">
<title>S &#45;&gt; S·S*&#45;&gt;S &#45;&gt; ·a</title>
<path fill="none" stroke="black" d="M697.17,-103.57C724.25,-124.87 771.37,-161.93 801.58,-185.69"/>
<polygon fill="black" stroke="black" points="799.6,-188.58 809.62,-192.01 803.93,-183.08 799.6,-188.58"/>
<text text-anchor="middle" x="754.65" y="-154.8" font-family="Times,serif" font-size="14.00">ε</text>
</g>
<!-- S &#45;&gt; SS·* -->
<g id="node10" class="node">
<title>S &#45;&gt; SS·*</title>
<ellipse fill="none" stroke="black" cx="830.95" cy="-87" rx="53.09" ry="18"/>
<text text-anchor="middle" x="830.95" y="-83.3" font-family="Times,serif" font-size="14.00">S &#45;&gt; SS·*</text>
</g>
<!-- S &#45;&gt; S·S*&#45;&gt;S &#45;&gt; SS·* -->
<g id="edge15" class="edge">
<title>S &#45;&gt; S·S*&#45;&gt;S &#45;&gt; SS·*</title>
<path fill="none" stroke="black" d="M729.48,-87C741.62,-87 754.62,-87 767.11,-87"/>
<polygon fill="black" stroke="black" points="767.45,-90.5 777.45,-87 767.45,-83.5 767.45,-90.5"/>
<text text-anchor="middle" x="754.65" y="-90.8" font-family="Times,serif" font-size="14.00">S</text>
</g>
<!-- S &#45;&gt; SS+· -->
<g id="node11" class="node">
<title>S &#45;&gt; SS+·</title>
<ellipse fill="none" stroke="black" cx="675.11" cy="-162" rx="56.59" ry="18"/>
<text text-anchor="middle" x="675.11" y="-158.3" font-family="Times,serif" font-size="14.00">S &#45;&gt; SS+·</text>
</g>
<!-- S &#45;&gt; SS·+&#45;&gt;S &#45;&gt; SS+· -->
<g id="edge16" class="edge">
<title>S &#45;&gt; SS·+&#45;&gt;S &#45;&gt; SS+·</title>
<path fill="none" stroke="black" d="M570.01,-162C582.39,-162 595.61,-162 608.34,-162"/>
<polygon fill="black" stroke="black" points="608.42,-165.5 618.42,-162 608.42,-158.5 608.42,-165.5"/>
<text text-anchor="middle" x="594.06" y="-165.8" font-family="Times,serif" font-size="14.00">+</text>
</g>
<!-- S &#45;&gt; SS*· -->
<g id="node12" class="node">
<title>S &#45;&gt; SS*·</title>
<ellipse fill="none" stroke="black" cx="982.54" cy="-87" rx="53.09" ry="18"/>
<text text-anchor="middle" x="982.54" y="-83.3" font-family="Times,serif" font-size="14.00">S &#45;&gt; SS*·</text>
</g>
<!-- S &#45;&gt; SS·*&#45;&gt;S &#45;&gt; SS*· -->
<g id="edge17" class="edge">
<title>S &#45;&gt; SS·*&#45;&gt;S &#45;&gt; SS*·</title>
<path fill="none" stroke="black" d="M884.27,-87C895.47,-87 907.43,-87 918.98,-87"/>
<polygon fill="black" stroke="black" points="918.99,-90.5 928.99,-87 918.99,-83.5 918.99,-90.5"/>
<text text-anchor="middle" x="906.74" y="-90.8" font-family="Times,serif" font-size="14.00">*</text>
</g>
</g>
</svg>
